<?xml version="1.0" encoding="iso-8859-1"?>
<!-- Generator: Adobe Illustrator 19.0.0, SVG Export Plug-In . SVG Version: 6.00 Build 0)  -->
<svg version="1.1" id="Layer_1" xmlns="http://www.w3.org/2000/svg" xmlns:xlink="http://www.w3.org/1999/xlink" x="0px" y="0px"
	 viewBox="0 0 512 512" style="enable-background:new 0 0 512 512;" xml:space="preserve">
<path style="fill:#959CB3;" d="M291.31,87.175H220.69V70.621c0-4.875,3.953-8.828,8.828-8.828h52.966
	c4.875,0,8.828,3.953,8.828,8.828V87.175z"/>
<path style="fill:#AFB9D2;" d="M150.069,158.897H79.448v-26.483c0-4.875,3.953-8.828,8.828-8.828h52.966
	c4.875,0,8.828,3.953,8.828,8.828V158.897z"/>
<g>
	<path style="fill:#C7CFE2;" d="M61.793,158.899h-35.31v-17.657c0-4.875,3.953-8.828,8.828-8.828h17.655
		c4.875,0,8.828,3.953,8.828,8.828V158.899z"/>
	<path style="fill:#C7CFE2;" d="M467.862,160.002h-61.793v-27.588c0-4.875,3.953-8.828,8.828-8.828h44.138
		c4.875,0,8.828,3.953,8.828,8.828V160.002z"/>
</g>
<path style="fill:#E4EAF6;" d="M503.172,450.207H8.828c-4.875,0-8.828-3.953-8.828-8.828V158.897c0-4.875,3.953-8.828,8.828-8.828
	h494.345c4.875,0,8.828,3.953,8.828,8.828v282.483C512,446.254,508.047,450.207,503.172,450.207z"/>
<rect y="238.345" style="fill:#5B5D6E;" width="512" height="185.379"/>
<rect y="238.345" style="fill:#464655;" width="512" height="35.31"/>
<path style="fill:#E4EAF6;" d="M167.724,132.414l38.844-46.613c3.354-4.025,8.323-6.353,13.564-6.353h71.737
	c5.239,0,10.209,2.327,13.564,6.353l38.844,46.613H167.724z"/>
<path style="fill:#D7DEED;" d="M512,158.897c0-4.875-3.953-8.828-8.828-8.828H346.924l-2.648-17.655H167.724l-2.648,17.655H8.828
	c-4.875,0-8.828,3.953-8.828,8.828v8.828h162.428l-17.266,115.102c-2.595,17.304-2.274,34.921,0.95,52.119l17.561,93.66
	c2.348,12.525,13.286,21.602,26.029,21.602h132.595c12.744,0,23.681-9.077,26.029-21.602l17.561-93.66
	c3.224-17.198,3.545-34.815,0.95-52.119l-17.266-115.102H512V158.897z"/>
<circle style="fill:#5B5D6E;" cx="256" cy="308.966" r="114.759"/>
<circle style="fill:#464655;" cx="256" cy="308.966" r="88.276"/>
<circle style="fill:#5B5D6E;" cx="256" cy="308.966" r="44.138"/>
<path style="fill:#464655;" d="M256,291.31c-9.737,0-17.655,7.918-17.655,17.655s7.918,17.655,17.655,17.655
	c9.737,0,17.655-7.918,17.655-17.655S265.737,291.31,256,291.31z"/>
<path style="fill:#D7DEED;" d="M295.724,247.172c-12.171,0-22.069,9.898-22.069,22.069c0,12.171,9.898,22.069,22.069,22.069
	c12.171,0,22.069-9.898,22.069-22.069C317.793,257.07,307.895,247.172,295.724,247.172z"/>
<g>
	<path style="fill:#FFFFFF;" d="M264.828,286.897c-7.303,0-13.241,5.939-13.241,13.241c0,7.303,5.939,13.241,13.241,13.241
		s13.241-5.939,13.241-13.241C278.069,292.835,272.13,286.897,264.828,286.897z"/>
	<path style="fill:#FFFFFF;" d="M296.375,291.244c-4.445-10.106-12.548-18.21-22.655-22.655c-0.007,0.222-0.066,0.428-0.066,0.651
		c0,12.171,9.898,22.069,22.069,22.069C295.947,291.31,296.155,291.251,296.375,291.244z"/>
	<circle style="fill:#FFFFFF;" cx="105.931" cy="238.345" r="17.655"/>
</g>
<g>
</g>
<g>
</g>
<g>
</g>
<g>
</g>
<g>
</g>
<g>
</g>
<g>
</g>
<g>
</g>
<g>
</g>
<g>
</g>
<g>
</g>
<g>
</g>
<g>
</g>
<g>
</g>
<g>
</g>
</svg>
