<?xml version="1.0" encoding="iso-8859-1"?>
<!-- Generator: Adobe Illustrator 19.0.0, SVG Export Plug-In . SVG Version: 6.00 Build 0)  -->
<svg version="1.1" id="Layer_1" xmlns="http://www.w3.org/2000/svg" xmlns:xlink="http://www.w3.org/1999/xlink" x="0px" y="0px"
	 viewBox="0 0 512 512" style="enable-background:new 0 0 512 512;" xml:space="preserve">
<path style="fill:#2D527C;" d="M404.434,512H162.108c-8.098,0-14.663-6.566-14.663-14.663v-69.966
	c0-8.097,6.565-14.663,14.663-14.663h128.617c8.098,0,14.663,6.566,14.663,14.663c0,8.097-6.565,14.663-14.663,14.663H176.771v40.64
	h213v-40.64h-27.863c-8.098,0-14.663-6.566-14.663-14.663c0-8.097,6.565-14.663,14.663-14.663h42.526
	c8.098,0,14.663,6.566,14.663,14.663v69.966C419.097,505.435,412.532,512,404.434,512z"/>
<path style="fill:#CEE8FA;" d="M391.435,83.15L391.435,83.15c-16.597,0-30.053,12.826-30.053,28.647V71.264
	c0-15.821-13.455-28.647-30.053-28.647l0,0c-16.597,0-30.053,12.826-30.053,28.647v154.777V71.264V43.996
	c0-15.534-12.672-28.763-28.957-29.314c-17.097-0.579-31.149,12.461-31.149,28.628v28.496l-0.324-0.543
	c0-15.821-13.455-28.647-30.053-28.647h-1.155c-16.597,0-30.053,12.826-30.053,28.647v93.135v24.786v74.912l-29.241-71.201
	c-5.144-15.36-22.388-23.83-38.501-18.927c-16.113,4.912-24.999,21.341-19.855,36.706l64.207,132.221
	c7.93,16.33,25.087,26.786,43.966,26.795l172.817,0.075c26.778,0.012,48.491-20.675,48.494-46.2l0.018-211.773
	C421.488,95.975,408.034,83.15,391.435,83.15z"/>
<g>
	<path style="fill:#2D527C;" d="M241.171,240.704c-8.098,0-14.663-6.566-14.663-14.663v-12.928c0-8.097,6.565-14.663,14.663-14.663
		s14.663,6.566,14.663,14.663v12.928C255.834,234.138,249.269,240.704,241.171,240.704z"/>
	<path style="fill:#2D527C;" d="M391.435,68.487c-5.406,0-10.59,0.934-15.39,2.644c-0.073-23.822-20.105-43.177-44.716-43.177
		c-6.112,0-11.942,1.194-17.253,3.353c-5.333-17.668-21.558-30.612-41.262-31.281c-12.361-0.419-24.449,4.185-33.184,12.628
		c-5.472,5.29-9.355,11.711-11.415,18.722c-5.356-2.202-11.245-3.422-17.421-3.422h-1.157c-24.656,0-44.716,19.429-44.716,43.31
		V189.8l-0.849-2.067c-7.839-22.471-33.062-34.922-56.506-27.786c-11.826,3.604-21.389,11.506-26.927,22.248
		c-5.337,10.357-6.246,22.125-2.559,33.14c0.201,0.598,0.438,1.183,0.714,1.749l64.208,132.221
		c10.335,21.283,32.768,35.042,57.149,35.053l172.817,0.075c0.01,0,0.019,0,0.029,0c16.725,0,32.486-6.241,44.379-17.571
		c12.093-11.519,18.754-26.895,18.755-43.29l0.018-211.774C436.151,87.915,416.092,68.487,391.435,68.487z M406.808,323.567
		c0,8.293-3.43,16.128-9.657,22.061c-6.415,6.113-14.991,9.478-24.15,9.478c-0.004,0-0.01,0-0.016,0l-172.817-0.075
		c-13.233-0.006-25.316-7.283-30.781-18.538l-63.718-131.214c-0.878-3.226-0.518-6.625,1.041-9.648
		c1.88-3.645,5.222-6.356,9.403-7.632c8.569-2.604,17.69,1.679,20.327,9.557c0.103,0.308,0.217,0.613,0.34,0.914l29.241,71.201
		c2.661,6.48,9.538,10.173,16.404,8.815c6.871-1.356,11.824-7.381,11.824-14.386V71.264c0-7.711,6.903-13.984,15.39-13.984h1.157
		c8.486,0,15.39,6.273,15.39,13.984c0,0.981,0.131,1.949,0.324,2.902v81.175c0,8.097,6.565,14.663,14.663,14.663
		c8.098,0,14.663-6.566,14.663-14.663V71.805V43.31c0-3.566,1.485-6.963,4.18-9.569c3.095-2.994,7.29-4.576,11.807-4.405
		c8.157,0.276,14.792,6.854,14.792,14.66v182.045c0,8.097,6.565,14.663,14.663,14.663s14.663-6.566,14.663-14.663V71.264
		c0-7.711,6.903-13.984,15.39-13.984c8.487,0,15.39,6.273,15.39,13.984v40.533c0,8.097,6.565,14.663,14.663,14.663
		s14.663-6.566,14.663-14.663c0-7.71,6.903-13.983,15.39-13.983s15.39,6.273,15.39,13.981L406.808,323.567z"/>
	<path style="fill:#2D527C;" d="M361.383,240.704c-8.098,0-14.663-6.566-14.663-14.663v-62.872c0-8.097,6.565-14.663,14.663-14.663
		s14.663,6.566,14.663,14.663v62.872C376.046,234.138,369.48,240.704,361.383,240.704z"/>
</g>
<g>
</g>
<g>
</g>
<g>
</g>
<g>
</g>
<g>
</g>
<g>
</g>
<g>
</g>
<g>
</g>
<g>
</g>
<g>
</g>
<g>
</g>
<g>
</g>
<g>
</g>
<g>
</g>
<g>
</g>
</svg>
