<?xml version="1.0" encoding="iso-8859-1"?>
<!-- Generator: Adobe Illustrator 19.0.0, SVG Export Plug-In . SVG Version: 6.00 Build 0)  -->
<svg version="1.1" id="Layer_1" xmlns="http://www.w3.org/2000/svg" xmlns:xlink="http://www.w3.org/1999/xlink" x="0px" y="0px"
	 viewBox="0 0 512 512" style="enable-background:new 0 0 512 512;" xml:space="preserve">
<path style="fill:#446080;" d="M5.565,133.565c0,73.766,0,111.304,0,111.304h66.783V133.565c0-36.824,29.959-66.783,66.783-66.783
	l22.261-33.391L139.13,0C65.365,0,5.565,59.799,5.565,133.565z"/>
<path style="fill:#324860;" d="M139.13,0v66.783c36.824,0,66.783,29.959,66.783,66.783V267.13h66.783c0,0,0-59.799,0-133.565
	S212.896,0,139.13,0z"/>
<polygon style="fill:#6790BF;" points="172.522,244.87 172.522,512 339.478,512 361.739,378.435 339.478,244.87 "/>
<rect x="339.478" y="244.87" style="fill:#446080;" width="166.957" height="267.13"/>
<path style="fill:#263648;" d="M372.87,361.739c0-18.442-14.949-33.391-33.391-33.391s-33.391,14.949-33.391,33.391
	c0,12.357,6.718,23.139,16.696,28.914v49h33.391v-49C366.151,384.878,372.87,374.096,372.87,361.739z"/>
<g>
</g>
<g>
</g>
<g>
</g>
<g>
</g>
<g>
</g>
<g>
</g>
<g>
</g>
<g>
</g>
<g>
</g>
<g>
</g>
<g>
</g>
<g>
</g>
<g>
</g>
<g>
</g>
<g>
</g>
</svg>
